<svg xmlns="http://www.w3.org/2000/svg" xmlns:xlink="http://www.w3.org/1999/xlink" contentStyleType="text/css" height="332px" preserveAspectRatio="none" style="width:235px;height:332px;background:#FFFFFF;" version="1.1" viewBox="0 0 235 332" width="235px" zoomAndPan="magnify"><title>DummyProject</title><defs/><g><text fill="#000000" font-family="sans-serif" font-size="14" font-weight="bold" lengthAdjust="spacing" textLength="115.958" x="52.5903" y="22.9951">DummyProject</text><!--cluster Common--><g id="cluster_Common"><rect fill="none" height="115" rx="2.5" ry="2.5" style="stroke:#000000;stroke-width:1.5;" width="155" x="7" y="120.8869"/><text fill="#000000" font-family="sans-serif" font-size="14" font-weight="bold" lengthAdjust="spacing" textLength="68.6533" x="50.1733" y="135.882">Common</text></g><!--class Result--><g id="elem_Result"><rect codeLine="13" fill="#F1F1F1" height="48" id="Result" rx="2.5" ry="2.5" style="stroke:#181818;stroke-width:0.5;" width="87.2168" x="31.39" y="163.8869"/><ellipse cx="46.39" cy="179.8869" fill="#ADD1B2" rx="11" ry="11" style="stroke:#181818;stroke-width:1;"/><path d="M49.3588,185.5275 Q48.7806,185.8244 48.14,185.965 Q47.4994,186.1213 46.7963,186.1213 Q44.2963,186.1213 42.9681,184.4806 Q41.6556,182.8244 41.6556,179.6994 Q41.6556,176.5744 42.9681,174.9181 Q44.2963,173.2619 46.7963,173.2619 Q47.4994,173.2619 48.14,173.4181 Q48.7963,173.5744 49.3588,173.8713 L49.3588,176.59 Q48.7338,176.0119 48.14,175.7463 Q47.5463,175.465 46.9213,175.465 Q45.5775,175.465 44.89,176.5431 Q44.2025,177.6056 44.2025,179.6994 Q44.2025,181.7931 44.89,182.8713 Q45.5775,183.9338 46.9213,183.9338 Q47.5463,183.9338 48.14,183.6681 Q48.7338,183.3869 49.3588,182.8088 L49.3588,185.5275 Z " fill="#000000"/><text fill="#000000" font-family="sans-serif" font-size="14" lengthAdjust="spacing" textLength="43.8867" x="60.39" y="184.7336">Result</text><rect fill="#FFFFFF" height="15.9688" style="stroke:#181818;stroke-width:1;stroke-dasharray:2.0,2.0;" width="9.3301" x="112.2767" y="160.8869"/><text fill="#000000" font-family="sans-serif" font-size="12" font-style="italic" lengthAdjust="spacing" textLength="7.3301" x="113.2767" y="173.0255">T</text><line style="stroke:#181818;stroke-width:0.5;" x1="32.39" x2="117.6068" y1="195.8869" y2="195.8869"/><line style="stroke:#181818;stroke-width:0.5;" x1="32.39" x2="117.6068" y1="203.8869" y2="203.8869"/></g><rect fill="#F1F1F1" height="52.5938" rx="2.5" ry="2.5" style="stroke:#181818;stroke-width:0.5;" width="45.6553" x="158.17" y="44.2969"/><text fill="#000000" font-family="sans-serif" font-size="14" font-weight="bold" lengthAdjust="spacing" textLength="25.6553" x="168.17" y="59.292">Api</text><rect fill="#F1F1F1" height="52.5938" rx="2.5" ry="2.5" style="stroke:#181818;stroke-width:0.5;" width="40.2686" x="188.87" y="161.5869"/><text fill="#000000" font-family="sans-serif" font-size="14" font-weight="bold" lengthAdjust="spacing" textLength="20.2686" x="198.87" y="176.582">Bll</text><rect fill="#F1F1F1" height="52.5938" rx="2.5" ry="2.5" style="stroke:#181818;stroke-width:0.5;" width="45.8672" x="158.07" y="274.1869"/><text fill="#000000" font-family="sans-serif" font-size="14" font-weight="bold" lengthAdjust="spacing" textLength="25.8672" x="168.07" y="289.182">Dal</text><!--reverse link Api to Common--><g id="link_Api_Common"><path codeLine="3" d="M171.4048,103.1154 C170.6948,105.6554 171.62,102.4269 171,104.8869 C168.7875,113.6244 166.6494,122.9394 164.6794,132.0397 C164.1869,134.3148 163.7049,136.5764 163.2349,138.8123 C162.9999,139.9302 162.7678,141.0417 162.539,142.1452 C162.4246,142.6969 162.311,143.2467 162.1981,143.7942 C162.1417,144.068 162.0855,144.3412 162.0295,144.6139 " fill="none" id="Api-backto-Common" style="stroke:#181818;stroke-width:1;"/><polygon fill="#181818" points="173.02,97.3369,166.7448,104.9278,171.674,102.1523,174.4495,107.0814,173.02,97.3369" style="stroke:#181818;stroke-width:1;"/></g><!--link Common to Bll--><g id="link_Common_Bll"><path codeLine="4" d="M162.1303,187.8869 C162.1744,187.8869 162.2184,187.8869 162.2625,187.8869 C162.615,187.8869 162.9675,187.8869 163.32,187.8869 C166.14,187.8869 168.96,187.8869 171.78,187.8869 C177.42,187.8869 177.06,187.8869 182.7,187.8869 " fill="none" id="Common-to-Bll" style="stroke:#181818;stroke-width:1;"/><polygon fill="#181818" points="188.7,187.8869,179.7,183.8869,183.7,187.8869,179.7,191.8869,188.7,187.8869" style="stroke:#181818;stroke-width:1;"/></g><!--link Common to Dal--><g id="link_Common_Dal"><path codeLine="5" d="M162.0395,221.8101 C162.1702,222.3454 162.3017,222.8841 162.434,223.4259 C162.6986,224.5096 162.9661,225.6057 163.2363,226.7122 C163.7765,228.9251 164.3269,231.1797 164.8835,233.4596 C165.9966,238.0195 167.1345,242.6805 168.2653,247.3122 C170.5269,256.5756 171.3366,259.8932 173.2866,267.8782 " fill="none" id="Common-to-Dal" style="stroke:#181818;stroke-width:1;"/><polygon fill="#181818" points="174.71,273.7069,176.4607,264.0149,173.5238,268.8496,168.6891,265.9128,174.71,273.7069" style="stroke:#181818;stroke-width:1;"/></g><!--reverse link Api to Bll--><g id="link_Api_Bll"><path codeLine="6" d="M188.6257,103.0075 C193.2657,122.1175 198.17,142.2769 202.8,161.3669 " fill="none" id="Api-backto-Bll" style="stroke:#181818;stroke-width:1;"/><polygon fill="#181818" points="187.21,97.1769,185.4465,106.8666,188.3897,102.0357,193.2206,104.979,187.21,97.1769" style="stroke:#181818;stroke-width:1;"/></g><!--reverse link Bll to Dal--><g id="link_Bll_Dal"><path codeLine="7" d="M201.0356,220.3529 C196.5056,238.2229 191.97,256.1369 187.46,273.9669 " fill="none" id="Bll-backto-Dal" style="stroke:#181818;stroke-width:1;"/><polygon fill="#181818" points="202.51,214.5369,196.4211,222.278,201.2814,219.3836,204.1758,224.2438,202.51,214.5369" style="stroke:#181818;stroke-width:1;"/></g><!--SRC=[JOtR2SCm34N_FOKMy0OXq3O3bBOBYDIuRkG7VX12oEwLIp3MtpdtYfiMum96j11mNb2hPzv8GLHpHgT9YMmoyrIitUxHVzcBcxVMEv0bo14kmJGHZVvaTbUYvXWd9C6gUwWqoBTVdVoduXol8Un7mzhhaAizdXEx0BwPC2Lug5Ge3wzH73y0]--></g></svg>