<svg xmlns="http://www.w3.org/2000/svg" xmlns:xlink="http://www.w3.org/1999/xlink" contentStyleType="text/css" height="328px" preserveAspectRatio="none" style="width:176px;height:328px;background:#FFFFFF;" version="1.1" viewBox="0 0 176 328" width="176px" zoomAndPan="magnify"><title>DummyProject</title><defs/><g><text fill="#000000" font-family="sans-serif" font-size="14" font-weight="bold" lengthAdjust="spacing" textLength="115.958" x="23.2503" y="22.9951">DummyProject</text><rect fill="#98FB98" height="52.5938" rx="2.5" ry="2.5" style="stroke:#181818;stroke-width:0.5;" width="88.6533" x="7" y="156.8869"/><text fill="#000000" font-family="sans-serif" font-size="14" font-weight="bold" lengthAdjust="spacing" textLength="68.6533" x="17" y="171.882">Common</text><rect fill="#F1F1F1" height="52.5938" rx="2.5" ry="2.5" style="stroke:#181818;stroke-width:0.5;" width="45.6553" x="77.5" y="44.2969"/><text fill="#000000" font-family="sans-serif" font-size="14" font-weight="bold" lengthAdjust="spacing" textLength="25.6553" x="87.5" y="59.292">Api</text><rect fill="#F1F1F1" height="52.5938" rx="2.5" ry="2.5" style="stroke:#181818;stroke-width:0.5;" width="40.2686" x="130.19" y="156.8869"/><text fill="#000000" font-family="sans-serif" font-size="14" font-weight="bold" lengthAdjust="spacing" textLength="20.2686" x="140.19" y="171.882">Bll</text><rect fill="#F1F1F1" height="52.5938" rx="2.5" ry="2.5" style="stroke:#181818;stroke-width:0.5;" width="45.8672" x="77.39" y="269.4869"/><text fill="#000000" font-family="sans-serif" font-size="14" font-weight="bold" lengthAdjust="spacing" textLength="25.8672" x="87.39" y="284.482">Dal</text><!--reverse link Api to Common--><g id="link_Api_Common"><path codeLine="3" d="M86.5303,102.7329 C78.6203,120.5929 70.53,138.8369 62.63,156.6769 " fill="none" id="Api-backto-Common" style="stroke:#181818;stroke-width:1;"/><polygon fill="#181818" points="88.96,97.2469,81.6581,103.8561,86.9352,101.8186,88.9728,107.0957,88.96,97.2469" style="stroke:#181818;stroke-width:1;"/></g><!--link Common to Bll--><g id="link_Common_Bll"><path codeLine="4" d="M95.8,183.1869 C107.16,183.1869 112.52,183.1869 123.88,183.1869 " fill="none" id="Common-to-Bll" style="stroke:#181818;stroke-width:1;"/><polygon fill="#181818" points="129.88,183.1869,120.88,179.1869,124.88,183.1869,120.88,187.1869,129.88,183.1869" style="stroke:#181818;stroke-width:1;"/></g><!--link Common to Dal--><g id="link_Common_Dal"><path codeLine="5" d="M62.69,209.8369 C70.61,227.7069 78.6895,245.9512 86.5895,263.7812 " fill="none" id="Common-to-Dal" style="stroke:#181818;stroke-width:1;"/><polygon fill="#181818" points="89.02,269.2669,89.0313,259.418,86.9945,264.6955,81.7171,262.6588,89.02,269.2669" style="stroke:#181818;stroke-width:1;"/></g><!--reverse link Api to Bll--><g id="link_Api_Bll"><path codeLine="6" d="M114.3931,102.7135 C122.4731,120.5735 130.73,138.8369 138.79,156.6769 " fill="none" id="Api-backto-Bll" style="stroke:#181818;stroke-width:1;"/><polygon fill="#181818" points="111.92,97.2469,111.9853,107.0955,113.9809,101.8024,119.2741,103.798,111.92,97.2469" style="stroke:#181818;stroke-width:1;"/></g><!--reverse link Bll to Dal--><g id="link_Bll_Dal"><path codeLine="7" d="M136.258,215.304 C128.178,233.174 119.92,251.4369 111.86,269.2669 " fill="none" id="Bll-backto-Dal" style="stroke:#181818;stroke-width:1;"/><polygon fill="#181818" points="138.73,209.8369,131.3773,216.3896,136.67,214.3928,138.6668,219.6855,138.73,209.8369" style="stroke:#181818;stroke-width:1;"/></g><!--SRC=[JOrH2i8m44J_Sug0txc12DOUGF04IrtIsCqch2bIYdTt8oNayxsPOTvBu0m2qMQO5l3uA1kX5PmAi2Sq9HJbSOrnkqjwgJUt56DYwzRiBlQQGnCI_5pK3KJDAOv0HbKtg7Hsp_HXzq_DSLv3ktyRrbw7Mktnk3Xb8FI2o1h-0000]--></g></svg>